<svg width="500" height="300" viewBox="0 0 500 300" fill="none" xmlns="http://www.w3.org/2000/svg">
<g id="Loading">
<g id="PenXR Logo">
<path d="M74.7531 61.0927C76.1812 57.6559 78.5613 57.6559 79.9894 61.0927L100.062 109.048C101.49 112.485 104.664 112.964 107.044 110.167L141.358 69.9244C143.777 67.0871 143.539 62.6912 140.882 60.0937L116.445 36.6756C113.748 34.118 108.551 32 104.822 32H49.9202C46.231 32 40.9946 34.118 38.2971 36.6756L13.8609 60.0937C11.1634 62.6513 10.965 67.0871 13.3849 69.9244L47.6987 110.167C50.1185 113.004 53.2524 112.485 54.6805 109.048L74.7531 61.0927Z" fill="white" style="fill:white;fill-opacity:1;"></path>
<path d="M169.205 102.174V47.985C169.205 46.3066 169.205 44.0287 171.03 42.3503C172.776 40.7518 176.663 40.6719 177.536 40.6719H205.542C209.906 40.6719 214.547 40.8317 218.435 43.9088C222.322 46.9859 223.552 51.4617 223.552 59.5342C223.552 64.6094 222.878 70.8436 217.919 74.3603C215.579 76.0387 212.207 76.9978 208.795 76.9978H174.402V102.134H169.166L169.205 102.174ZM205.82 72.8417C211.532 72.8417 214.151 71.3631 215.301 70.0443C217.919 67.2469 217.919 60.7331 217.919 58.3753C217.919 56.0175 217.721 50.5826 215.103 47.7452C213.635 46.3465 210.937 44.9479 205.979 44.9479H178.29C174.402 44.9479 174.402 46.6263 174.402 48.7043V72.8417H205.82Z" fill="white" style="fill:white;fill-opacity:1;"></path>
<path d="M244.339 102.174C241.998 102.174 239.499 102.334 237.278 100.336C235.255 98.4976 235.136 96.02 235.136 93.6622V48.8642C235.136 45.2676 236.603 43.5891 237.079 42.9897C239.023 40.8717 241.522 40.7118 244.141 40.7118H284.127V44.9479H244.894C243.823 44.9479 242.078 45.2276 241.403 45.827C240.332 46.6263 240.332 48.3047 240.332 48.9041V68.6456H283.135V72.8817H240.332V94.7412C240.332 95.4605 240.61 96.5794 241.284 97.2188C241.959 97.8582 244.458 98.0181 245.648 98.0181H284.484V102.214H244.299L244.339 102.174Z" fill="white" style="fill:white;fill-opacity:1;"></path>
<path d="M352.517 96.02C352.517 100.136 350.494 102.854 346.328 102.854C343.234 102.854 341.766 101.535 339.545 98.3777L304.12 46.4664C303.724 45.867 302.97 44.9878 301.899 44.9878C301.621 44.9878 300.431 45.2676 300.431 46.7462V102.174H295.195V46.2267C295.195 40.1524 300.431 39.9925 301.582 39.9925C305.35 39.9925 306.818 42.0306 308.246 44.1086L343.869 96.2597C344.345 96.9791 344.821 97.8183 346.011 97.8183C347.28 97.8183 347.28 96.8592 347.28 96.2597V40.6719H352.517V96.02Z" fill="white" style="fill:white;fill-opacity:1;"></path>
<path d="M407.816 102.174L389.726 79.1558L371.637 102.174H356.444L382.507 71.0034L357.237 40.7118H372.431L389.766 62.8511L407.102 40.7118H422.295L397.026 71.0034L423.088 102.174H407.816Z" fill="white" style="fill:white;fill-opacity:1;"></path>
<path d="M425.944 51.142C425.944 48.5844 426.063 45.5073 428.761 43.1495C431.181 41.0315 434.275 40.6719 436.893 40.6719H469.065C473.706 40.6719 479.696 40.9516 483.584 46.3066C486.797 50.5426 486.956 55.3381 486.956 59.8139C486.956 64.2897 486.757 69.1252 484.06 73.6809C482.314 76.6781 479.141 79.995 471.286 79.995H462.559V80.4346L488.304 102.134H472.238L449.944 82.1929C448.477 80.8742 446.771 78.7562 446.771 76.9978V75.5991C446.771 73.1214 448.715 71.3631 452.483 71.3631H465.257C467.478 71.3631 470.374 71.0833 472.238 68.6456C473.587 66.6075 473.785 62.3316 473.785 60.2135C473.785 55.2981 472.833 53.0203 471.366 51.7015C469.343 49.8632 466.248 49.8632 464.186 49.8632H443.478C442.01 49.8632 441.138 49.8632 440.106 50.8223C438.639 51.8614 438.758 52.9404 438.758 54.2591V102.134H425.984V51.142H425.944Z" fill="white" style="fill:white;fill-opacity:1;"></path>
</g>
<path id="Everything you in one place." d="M52.9692 178.667V156.849H66.1368V159.192H55.6112V166.564H65.455V168.908H55.6112V176.323H66.3073V178.667H52.9692ZM83.9387 162.303L77.8875 178.667H75.3307L69.2796 162.303H72.0068L76.5239 175.343H76.6943L81.2114 162.303H83.9387ZM93.532 179.008C91.9553 179.008 90.5953 178.66 89.4518 177.964C88.3154 177.26 87.4383 176.28 86.8204 175.023C86.2096 173.759 85.9042 172.289 85.9042 170.613C85.9042 168.937 86.2096 167.459 86.8204 166.181C87.4383 164.895 88.2977 163.894 89.3985 163.177C90.5065 162.452 91.7991 162.09 93.2764 162.09C94.1286 162.09 94.9703 162.232 95.8012 162.516C96.6322 162.8 97.3886 163.262 98.0704 163.901C98.7522 164.533 99.2955 165.371 99.7004 166.415C100.105 167.459 100.308 168.745 100.308 170.272V171.337H87.694V169.164H97.7508C97.7508 168.241 97.5661 167.417 97.1968 166.692C96.8346 165.968 96.3161 165.396 95.6414 164.977C94.9738 164.558 94.1855 164.349 93.2764 164.349C92.2749 164.349 91.4085 164.597 90.6769 165.094C89.9525 165.584 89.395 166.224 89.0044 167.012C88.6137 167.8 88.4184 168.645 88.4184 169.547V170.996C88.4184 172.232 88.6315 173.28 89.0576 174.139C89.4909 174.991 90.091 175.641 90.858 176.089C91.6251 176.529 92.5164 176.749 93.532 176.749C94.1926 176.749 94.7892 176.657 95.3218 176.472C95.8616 176.28 96.3268 175.996 96.7174 175.62C97.108 175.236 97.4099 174.76 97.623 174.192L100.052 174.874C99.7963 175.698 99.3666 176.422 98.7629 177.047C98.1592 177.665 97.4134 178.148 96.5257 178.496C95.6379 178.837 94.64 179.008 93.532 179.008ZM104.132 178.667V162.303H106.561V164.775H106.732C107.03 163.965 107.57 163.308 108.351 162.804C109.132 162.299 110.013 162.047 110.993 162.047C111.178 162.047 111.408 162.051 111.685 162.058C111.962 162.065 112.172 162.076 112.314 162.09V164.647C112.229 164.625 112.033 164.594 111.728 164.551C111.43 164.501 111.114 164.476 110.78 164.476C109.984 164.476 109.274 164.643 108.649 164.977C108.031 165.304 107.541 165.758 107.179 166.341C106.824 166.916 106.646 167.573 106.646 168.312V178.667H104.132ZM117.412 184.803C116.986 184.803 116.606 184.768 116.272 184.697C115.938 184.633 115.707 184.569 115.579 184.505L116.218 182.289C116.829 182.445 117.369 182.502 117.838 182.459C118.307 182.417 118.722 182.207 119.084 181.831C119.454 181.461 119.791 180.861 120.096 180.03L120.565 178.752L114.514 162.303H117.241L121.758 175.343H121.929L126.446 162.303H129.173L122.227 181.053C121.915 181.898 121.527 182.598 121.066 183.152C120.604 183.713 120.068 184.128 119.457 184.398C118.853 184.668 118.172 184.803 117.412 184.803ZM139.608 162.303V164.434H131.128V162.303H139.608ZM133.6 158.383H136.114V173.979C136.114 174.689 136.217 175.222 136.423 175.577C136.636 175.925 136.906 176.16 137.232 176.28C137.566 176.394 137.918 176.451 138.287 176.451C138.564 176.451 138.791 176.437 138.969 176.408C139.146 176.373 139.288 176.344 139.395 176.323L139.906 178.581C139.736 178.645 139.498 178.709 139.193 178.773C138.887 178.844 138.5 178.88 138.031 178.88C137.321 178.88 136.625 178.727 135.943 178.422C135.269 178.116 134.707 177.651 134.26 177.026C133.82 176.401 133.6 175.613 133.6 174.661V158.383ZM146.256 168.823V178.667H143.742V156.849H146.256V164.86H146.469C146.852 164.015 147.428 163.344 148.195 162.846C148.969 162.342 149.999 162.09 151.284 162.09C152.399 162.09 153.376 162.314 154.214 162.761C155.052 163.201 155.702 163.88 156.163 164.796C156.632 165.705 156.867 166.863 156.867 168.269V178.667H154.352V168.439C154.352 167.14 154.015 166.135 153.34 165.424C152.673 164.707 151.746 164.349 150.56 164.349C149.736 164.349 148.997 164.523 148.344 164.871C147.698 165.219 147.186 165.726 146.81 166.394C146.44 167.062 146.256 167.871 146.256 168.823ZM161.466 178.667V162.303H163.98V178.667H161.466ZM162.745 159.576C162.255 159.576 161.832 159.409 161.477 159.075C161.129 158.741 160.955 158.34 160.955 157.871C160.955 157.402 161.129 157.001 161.477 156.667C161.832 156.334 162.255 156.167 162.745 156.167C163.235 156.167 163.654 156.334 164.002 156.667C164.357 157.001 164.534 157.402 164.534 157.871C164.534 158.34 164.357 158.741 164.002 159.075C163.654 159.409 163.235 159.576 162.745 159.576ZM171.1 168.823V178.667H168.585V162.303H171.014V164.86H171.227C171.611 164.029 172.193 163.361 172.975 162.857C173.756 162.346 174.764 162.09 176 162.09C177.108 162.09 178.078 162.317 178.908 162.772C179.739 163.219 180.386 163.901 180.847 164.817C181.309 165.726 181.54 166.877 181.54 168.269V178.667H179.026V168.439C179.026 167.154 178.692 166.152 178.024 165.435C177.357 164.711 176.44 164.349 175.276 164.349C174.473 164.349 173.756 164.523 173.124 164.871C172.499 165.219 172.005 165.726 171.643 166.394C171.281 167.062 171.1 167.871 171.1 168.823ZM192.739 185.144C191.525 185.144 190.481 184.988 189.607 184.675C188.734 184.37 188.006 183.965 187.423 183.461C186.848 182.964 186.39 182.431 186.049 181.863L188.052 180.456C188.279 180.755 188.567 181.096 188.915 181.479C189.263 181.87 189.739 182.207 190.342 182.491C190.953 182.782 191.752 182.928 192.739 182.928C194.06 182.928 195.15 182.608 196.01 181.969C196.869 181.33 197.299 180.329 197.299 178.965V175.641H197.086C196.901 175.939 196.638 176.309 196.297 176.749C195.964 177.182 195.481 177.569 194.849 177.91C194.224 178.244 193.378 178.411 192.313 178.411C190.992 178.411 189.806 178.099 188.755 177.474C187.711 176.849 186.883 175.939 186.273 174.746C185.669 173.553 185.367 172.104 185.367 170.4C185.367 168.724 185.662 167.264 186.251 166.021C186.841 164.771 187.661 163.805 188.712 163.123C189.763 162.434 190.978 162.09 192.356 162.09C193.421 162.09 194.266 162.268 194.891 162.623C195.523 162.971 196.006 163.368 196.34 163.816C196.681 164.256 196.944 164.618 197.128 164.902H197.384V162.303H199.813V179.135C199.813 180.542 199.494 181.685 198.854 182.566C198.222 183.454 197.37 184.103 196.297 184.515C195.232 184.934 194.046 185.144 192.739 185.144ZM192.654 176.152C193.663 176.152 194.515 175.922 195.211 175.46C195.907 174.998 196.436 174.334 196.798 173.468C197.16 172.601 197.342 171.564 197.342 170.357C197.342 169.178 197.164 168.138 196.809 167.236C196.454 166.334 195.928 165.627 195.232 165.116C194.536 164.604 193.677 164.349 192.654 164.349C191.589 164.349 190.701 164.618 189.991 165.158C189.288 165.698 188.758 166.422 188.403 167.331C188.055 168.241 187.881 169.249 187.881 170.357C187.881 171.493 188.059 172.498 188.414 173.372C188.776 174.238 189.309 174.92 190.012 175.417C190.722 175.907 191.603 176.152 192.654 176.152ZM214.472 184.803C214.046 184.803 213.666 184.768 213.332 184.697C212.998 184.633 212.768 184.569 212.64 184.505L213.279 182.289C213.89 182.445 214.43 182.502 214.898 182.459C215.367 182.417 215.783 182.207 216.145 181.831C216.514 181.461 216.851 180.861 217.157 180.03L217.626 178.752L211.574 162.303H214.302L218.819 175.343H218.989L223.506 162.303H226.234L219.288 181.053C218.975 181.898 218.588 182.598 218.126 183.152C217.665 183.713 217.128 184.128 216.518 184.398C215.914 184.668 215.232 184.803 214.472 184.803ZM235.614 179.008C234.137 179.008 232.84 178.656 231.725 177.953C230.617 177.25 229.751 176.266 229.126 175.002C228.508 173.738 228.199 172.26 228.199 170.57C228.199 168.866 228.508 167.378 229.126 166.106C229.751 164.835 230.617 163.848 231.725 163.145C232.84 162.442 234.137 162.09 235.614 162.09C237.091 162.09 238.384 162.442 239.492 163.145C240.607 163.848 241.473 164.835 242.091 166.106C242.716 167.378 243.029 168.866 243.029 170.57C243.029 172.26 242.716 173.738 242.091 175.002C241.473 176.266 240.607 177.25 239.492 177.953C238.384 178.656 237.091 179.008 235.614 179.008ZM235.614 176.749C236.736 176.749 237.659 176.461 238.384 175.886C239.108 175.311 239.644 174.554 239.992 173.617C240.34 172.679 240.514 171.664 240.514 170.57C240.514 169.476 240.34 168.457 239.992 167.513C239.644 166.568 239.108 165.804 238.384 165.222C237.659 164.64 236.736 164.349 235.614 164.349C234.492 164.349 233.568 164.64 232.844 165.222C232.12 165.804 231.583 166.568 231.235 167.513C230.887 168.457 230.713 169.476 230.713 170.57C230.713 171.664 230.887 172.679 231.235 173.617C231.583 174.554 232.12 175.311 232.844 175.886C233.568 176.461 234.492 176.749 235.614 176.749ZM257.179 171.976V162.303H259.693V178.667H257.179V175.897H257.009C256.625 176.728 256.028 177.434 255.219 178.017C254.409 178.592 253.386 178.88 252.151 178.88C251.128 178.88 250.219 178.656 249.423 178.209C248.628 177.754 248.003 177.072 247.548 176.163C247.094 175.247 246.867 174.093 246.867 172.701V162.303H249.381V172.53C249.381 173.724 249.715 174.675 250.382 175.385C251.057 176.096 251.916 176.451 252.96 176.451C253.585 176.451 254.221 176.291 254.867 175.971C255.521 175.652 256.068 175.162 256.508 174.501C256.955 173.841 257.179 172.999 257.179 171.976ZM272.736 178.667V162.303H275.25V178.667H272.736ZM274.014 159.576C273.524 159.576 273.101 159.409 272.746 159.075C272.398 158.741 272.224 158.34 272.224 157.871C272.224 157.402 272.398 157.001 272.746 156.667C273.101 156.334 273.524 156.167 274.014 156.167C274.504 156.167 274.923 156.334 275.271 156.667C275.626 157.001 275.804 157.402 275.804 157.871C275.804 158.34 275.626 158.741 275.271 159.075C274.923 159.409 274.504 159.576 274.014 159.576ZM282.369 168.823V178.667H279.855V162.303H282.284V164.86H282.497C282.88 164.029 283.463 163.361 284.244 162.857C285.025 162.346 286.034 162.09 287.27 162.09C288.378 162.09 289.347 162.317 290.178 162.772C291.009 163.219 291.655 163.901 292.117 164.817C292.579 165.726 292.809 166.877 292.809 168.269V178.667H290.295V168.439C290.295 167.154 289.961 166.152 289.294 165.435C288.626 164.711 287.71 164.349 286.545 164.349C285.743 164.349 285.025 164.523 284.393 164.871C283.768 165.219 283.275 165.726 282.912 166.394C282.55 167.062 282.369 167.871 282.369 168.823ZM312.489 179.008C311.012 179.008 309.715 178.656 308.6 177.953C307.492 177.25 306.626 176.266 306.001 175.002C305.383 173.738 305.074 172.26 305.074 170.57C305.074 168.866 305.383 167.378 306.001 166.106C306.626 164.835 307.492 163.848 308.6 163.145C309.715 162.442 311.012 162.09 312.489 162.09C313.966 162.09 315.259 162.442 316.367 163.145C317.482 163.848 318.348 164.835 318.966 166.106C319.591 167.378 319.904 168.866 319.904 170.57C319.904 172.26 319.591 173.738 318.966 175.002C318.348 176.266 317.482 177.25 316.367 177.953C315.259 178.656 313.966 179.008 312.489 179.008ZM312.489 176.749C313.611 176.749 314.534 176.461 315.259 175.886C315.983 175.311 316.519 174.554 316.867 173.617C317.215 172.679 317.389 171.664 317.389 170.57C317.389 169.476 317.215 168.457 316.867 167.513C316.519 166.568 315.983 165.804 315.259 165.222C314.534 164.64 313.611 164.349 312.489 164.349C311.367 164.349 310.443 164.64 309.719 165.222C308.995 165.804 308.458 166.568 308.11 167.513C307.762 168.457 307.588 169.476 307.588 170.57C307.588 171.664 307.762 172.679 308.11 173.617C308.458 174.554 308.995 175.311 309.719 175.886C310.443 176.461 311.367 176.749 312.489 176.749ZM326.256 168.823V178.667H323.742V162.303H326.171V164.86H326.384C326.767 164.029 327.35 163.361 328.131 162.857C328.912 162.346 329.921 162.09 331.156 162.09C332.264 162.09 333.234 162.317 334.065 162.772C334.896 163.219 335.542 163.901 336.004 164.817C336.465 165.726 336.696 166.877 336.696 168.269V178.667H334.182V168.439C334.182 167.154 333.848 166.152 333.18 165.435C332.513 164.711 331.597 164.349 330.432 164.349C329.629 164.349 328.912 164.523 328.28 164.871C327.655 165.219 327.161 165.726 326.799 166.394C326.437 167.062 326.256 167.871 326.256 168.823ZM348.151 179.008C346.574 179.008 345.214 178.66 344.071 177.964C342.935 177.26 342.057 176.28 341.44 175.023C340.829 173.759 340.523 172.289 340.523 170.613C340.523 168.937 340.829 167.459 341.44 166.181C342.057 164.895 342.917 163.894 344.018 163.177C345.126 162.452 346.418 162.09 347.896 162.09C348.748 162.09 349.589 162.232 350.42 162.516C351.251 162.8 352.008 163.262 352.69 163.901C353.371 164.533 353.915 165.371 354.32 166.415C354.724 167.459 354.927 168.745 354.927 170.272V171.337H342.313V169.164H352.37C352.37 168.241 352.185 167.417 351.816 166.692C351.454 165.968 350.935 165.396 350.261 164.977C349.593 164.558 348.805 164.349 347.896 164.349C346.894 164.349 346.028 164.597 345.296 165.094C344.572 165.584 344.014 166.224 343.623 167.012C343.233 167.8 343.038 168.645 343.038 169.547V170.996C343.038 172.232 343.251 173.28 343.677 174.139C344.11 174.991 344.71 175.641 345.477 176.089C346.244 176.529 347.136 176.749 348.151 176.749C348.812 176.749 349.408 176.657 349.941 176.472C350.481 176.28 350.946 175.996 351.337 175.62C351.727 175.236 352.029 174.76 352.242 174.192L354.671 174.874C354.415 175.698 353.986 176.422 353.382 177.047C352.778 177.665 352.033 178.148 351.145 178.496C350.257 178.837 349.259 179.008 348.151 179.008ZM367.189 184.803V162.303H369.618V164.902H369.916C370.101 164.618 370.356 164.256 370.683 163.816C371.017 163.368 371.493 162.971 372.111 162.623C372.736 162.268 373.581 162.09 374.646 162.09C376.024 162.09 377.239 162.434 378.29 163.123C379.341 163.812 380.161 164.789 380.751 166.053C381.34 167.317 381.635 168.809 381.635 170.527C381.635 172.26 381.34 173.763 380.751 175.034C380.161 176.298 379.344 177.278 378.3 177.974C377.256 178.663 376.052 179.008 374.689 179.008C373.638 179.008 372.796 178.834 372.164 178.486C371.532 178.13 371.045 177.729 370.704 177.282C370.364 176.827 370.101 176.451 369.916 176.152H369.703V184.803H367.189ZM369.66 170.485C369.66 171.721 369.842 172.811 370.204 173.755C370.566 174.693 371.095 175.428 371.791 175.961C372.487 176.486 373.339 176.749 374.348 176.749C375.399 176.749 376.276 176.472 376.979 175.918C377.69 175.357 378.222 174.604 378.577 173.66C378.94 172.708 379.121 171.65 379.121 170.485C379.121 169.334 378.943 168.297 378.588 167.374C378.24 166.444 377.711 165.709 377.001 165.169C376.297 164.622 375.413 164.349 374.348 164.349C373.325 164.349 372.466 164.608 371.77 165.126C371.074 165.638 370.548 166.355 370.193 167.278C369.838 168.194 369.66 169.263 369.66 170.485ZM387.984 156.849V178.667H385.47V156.849H387.984ZM397.405 179.05C396.368 179.05 395.427 178.855 394.581 178.464C393.736 178.067 393.065 177.495 392.568 176.749C392.071 175.996 391.822 175.087 391.822 174.022C391.822 173.084 392.007 172.324 392.376 171.742C392.745 171.152 393.239 170.691 393.857 170.357C394.475 170.023 395.157 169.775 395.902 169.611C396.655 169.441 397.412 169.306 398.172 169.206C399.166 169.079 399.972 168.983 400.59 168.919C401.215 168.848 401.669 168.731 401.954 168.567C402.245 168.404 402.39 168.12 402.39 167.715V167.63C402.39 166.579 402.103 165.762 401.527 165.179C400.959 164.597 400.096 164.306 398.939 164.306C397.738 164.306 396.797 164.569 396.116 165.094C395.434 165.62 394.954 166.181 394.677 166.777L392.291 165.925C392.717 164.931 393.285 164.157 393.995 163.603C394.713 163.042 395.494 162.651 396.339 162.431C397.191 162.204 398.03 162.09 398.853 162.09C399.379 162.09 399.983 162.154 400.665 162.282C401.353 162.402 402.017 162.655 402.657 163.038C403.303 163.422 403.839 164 404.265 164.775C404.691 165.549 404.905 166.586 404.905 167.885V178.667H402.39V176.451H402.263C402.092 176.806 401.808 177.186 401.41 177.591C401.013 177.996 400.483 178.34 399.823 178.624C399.162 178.908 398.356 179.05 397.405 179.05ZM397.788 176.792C398.782 176.792 399.62 176.596 400.302 176.206C400.991 175.815 401.51 175.311 401.858 174.693C402.213 174.075 402.39 173.425 402.39 172.743V170.442C402.284 170.57 402.049 170.687 401.687 170.794C401.332 170.893 400.92 170.982 400.451 171.06C399.99 171.131 399.539 171.195 399.098 171.252C398.665 171.302 398.314 171.344 398.044 171.38C397.39 171.465 396.78 171.603 396.211 171.795C395.65 171.98 395.196 172.26 394.848 172.637C394.507 173.006 394.336 173.51 394.336 174.15C394.336 175.023 394.66 175.684 395.306 176.131C395.959 176.572 396.787 176.792 397.788 176.792ZM416.141 179.008C414.607 179.008 413.286 178.645 412.178 177.921C411.07 177.197 410.218 176.199 409.621 174.927C409.025 173.656 408.726 172.204 408.726 170.57C408.726 168.908 409.032 167.442 409.643 166.17C410.261 164.892 411.12 163.894 412.221 163.177C413.329 162.452 414.621 162.09 416.099 162.09C417.249 162.09 418.286 162.303 419.209 162.729C420.133 163.155 420.889 163.752 421.479 164.519C422.068 165.286 422.434 166.181 422.576 167.204H420.062C419.87 166.458 419.444 165.797 418.783 165.222C418.13 164.64 417.249 164.349 416.141 164.349C415.161 164.349 414.302 164.604 413.563 165.116C412.832 165.62 412.26 166.334 411.848 167.257C411.443 168.173 411.241 169.249 411.241 170.485C411.241 171.749 411.44 172.85 411.837 173.787C412.242 174.725 412.81 175.453 413.542 175.971C414.28 176.49 415.147 176.749 416.141 176.749C416.795 176.749 417.388 176.635 417.92 176.408C418.453 176.181 418.904 175.854 419.273 175.428C419.643 175.002 419.905 174.491 420.062 173.894H422.576C422.434 174.86 422.082 175.73 421.521 176.504C420.967 177.271 420.232 177.882 419.316 178.336C418.407 178.784 417.349 179.008 416.141 179.008ZM433.112 179.008C431.535 179.008 430.175 178.66 429.032 177.964C427.896 177.26 427.018 176.28 426.4 175.023C425.79 173.759 425.484 172.289 425.484 170.613C425.484 168.937 425.79 167.459 426.4 166.181C427.018 164.895 427.878 163.894 428.979 163.177C430.087 162.452 431.379 162.09 432.856 162.09C433.709 162.09 434.55 162.232 435.381 162.516C436.212 162.8 436.969 163.262 437.65 163.901C438.332 164.533 438.876 165.371 439.28 166.415C439.685 167.459 439.888 168.745 439.888 170.272V171.337H427.274V169.164H437.331C437.331 168.241 437.146 167.417 436.777 166.692C436.415 165.968 435.896 165.396 435.222 164.977C434.554 164.558 433.766 164.349 432.856 164.349C431.855 164.349 430.989 164.597 430.257 165.094C429.533 165.584 428.975 166.224 428.584 167.012C428.194 167.8 427.998 168.645 427.998 169.547V170.996C427.998 172.232 428.212 173.28 428.638 174.139C429.071 174.991 429.671 175.641 430.438 176.089C431.205 176.529 432.097 176.749 433.112 176.749C433.773 176.749 434.369 176.657 434.902 176.472C435.442 176.28 435.907 175.996 436.297 175.62C436.688 175.236 436.99 174.76 437.203 174.192L439.632 174.874C439.376 175.698 438.947 176.422 438.343 177.047C437.739 177.665 436.994 178.148 436.106 178.496C435.218 178.837 434.22 179.008 433.112 179.008ZM445.545 178.837C445.019 178.837 444.568 178.649 444.192 178.273C443.815 177.896 443.627 177.445 443.627 176.92C443.627 176.394 443.815 175.943 444.192 175.567C444.568 175.19 445.019 175.002 445.545 175.002C446.07 175.002 446.521 175.19 446.898 175.567C447.274 175.943 447.462 176.394 447.462 176.92C447.462 177.268 447.373 177.587 447.196 177.878C447.025 178.17 446.795 178.404 446.503 178.581C446.219 178.752 445.9 178.837 445.545 178.837Z" fill="white" style="fill:white;fill-opacity:1;"></path>
<path id="Ellipse 3" opacity="0.5" d="M257 225.5C271.083 225.5 282.5 236.917 282.5 251C282.5 265.083 271.083 276.5 257 276.5C242.917 276.5 231.5 265.083 231.5 251C231.5 236.917 242.917 225.5 257 225.5Z" stroke="white" style="stroke: white; stroke-opacity: 1; stroke-dashoffset: 0px; stroke-dasharray: 0px, 160.243px; animation: 1.25s linear 0s 1 normal forwards running id_anim_stroke-property7;" stroke-width="5" class="id_anim_stroke-property7" data-duration="1.25" data-offset="0"></path>
</g>
<style>
        @keyframes id_anim_stroke-property7{
        
            0%{
                stroke-dashoffset: 0px; 
        stroke-dasharray: 0px, 160.24343872070312px;
            }
        
            50%{
                stroke-dashoffset: -80.12171936035156px; 
        stroke-dasharray: 80.12171936035156px, 80.12171936035156px;
            }
        
            100%{
                stroke-dashoffset: -160.24343872070312px; 
        stroke-dasharray: 160.24343872070312px, 0px;
            }
        
        }
        </style></svg>
